<svg xmlns="http://www.w3.org/2000/svg" viewBox="0 0 46 46">
  <defs>
    <style>
      .cls-1 {
        fill: #4e4d4d;
      }

      .cls-2 {
        fill: #00b0d3;
      }
    </style>
  </defs>
  <title>diana</title>
  <g id="Capa_2" data-name="Capa 2">
    <g id="Icon">
      <g>
        <g>
          <path class="cls-1" d="M23.5,27.25a3.6531,3.6531,0,0,1-2.3223-.75C21.1426,26.5029,16.5,22,16.5,22H13.19A11.0422,11.0422,0,1,0,22,13.19V16.5s4.4922,4.62,4.5,4.6777A3.8612,3.8612,0,0,1,27.25,23.5,3.7516,3.7516,0,0,1,23.5,27.25Z"/>
          <path class="cls-1" d="M24,2a21.9088,21.9088,0,0,0-8.707,1.8037l3.8222,3.6631A17.2926,17.2926,0,1,1,7.4668,19.1152L3.8037,15.293A21.9956,21.9956,0,1,0,24,2Z"/>
        </g>
        <path class="cls-2" d="M17.5,20l5.0391,4.9609a1.748,1.748,0,0,0,2.4218-2.4218L20,17.5v-6L8,0V8H0L11.5,20Z"/>
      </g>
    </g>
  </g>
</svg>
