<svg xmlns="http://www.w3.org/2000/svg" viewBox="0 0 48 48">
  <defs>
    <style>
      .cls-1 {
        fill: #4e4d4d;
      }

      .cls-2 {
        fill: #00b0d3;
      }
    </style>
  </defs>
  <title>dinero</title>
  <g id="Capa_2" data-name="Capa 2">
    <g id="Icon">
      <g>
        <g>
          <path class="cls-1" d="M16.78,18,18,23v2l6,4,6-4V23l1.22-5a1.9568,1.9568,0,0,0,1.4092-.4375c1.0986-1,1.8037-3.5,1.07-4.8437C33.1865,11.7773,33,12,33,12V7.375c0-2.8335-1.25-5.125-3.709-5.125C28.458.5,26.459,0,24,0c-5.4141,0-9,3-9,7v5s-.1865-.2227-.6992.7188c-.7334,1.3437-.0283,3.8437,1.07,4.8437A1.9568,1.9568,0,0,0,16.78,18Z"/>
          <path class="cls-1" d="M32,40V38h3.4512c-2.459-1.397-3.7012-3.3066-3.7012-5.7041a6.328,6.328,0,0,1,1.8311-4.498C32.0654,27.3232,31,27,31,27L26,42.5v-7L24.4,33,26,31.5l-2-2-2,2L23.6,33,22,35.5v7L16.999,27S5.1924,30.58,4,31.5C2.3408,32.7729,0,43,0,48H36V45.7388A5.6768,5.6768,0,0,1,32,40Z"/>
          <path class="cls-1" d="M44,45.7354V48h4a35.4677,35.4677,0,0,0-.51-5.2422A6.2611,6.2611,0,0,1,44,45.7354Z"/>
        </g>
        <path class="cls-2" d="M43,32c0-1.0527-1-2-3-2s-3,.9482-3,2c0,1.3,1.6289,1.9639,3.4863,2.5C43.8369,35.4648,46,37,46,39.7041c0,.9619-.06,3.8428-4,4.4932V46H38V44.1973c-3.9385-.65-4-3.2354-4-4.1973h3c0,1.0527.4277,2,3,2,2,0,3-.9482,3-2,0-1.3984-1.3262-1.877-3.4863-2.5C34.7168,36.1182,34,34,34,32.2959c0-.96.0615-3.8428,4-4.4932V26h4v1.8545c2.502.5557,4,2.0117,4,4.1455Z"/>
      </g>
    </g>
  </g>
</svg>
