<svg xmlns="http://www.w3.org/2000/svg" viewBox="0 0 46 48">
  <defs>
    <style>
      .cls-1 {
        fill: #4e4d4d;
      }

      .cls-2 {
        fill: #00b0d3;
      }
    </style>
  </defs>
  <title>gestos</title>
  <g id="Capa_2" data-name="Capa 2">
    <g id="Icon">
      <g>
        <g>
          <path class="cls-1" d="M21,10c2.4,0,4-2.9438,4-5.4546A4.2988,4.2988,0,0,0,21,0a4.2988,4.2988,0,0,0-4,4.5454C17,7.0562,18.6,10,21,10Z"/>
          <path class="cls-1" d="M37,12H24.3682L22,18.5V14.25l-.5-1L22,12H20l.5,1.25-.5,1V18.5L17.6318,12H9V9H4v5.5A2.5,2.5,0,0,0,6.5,17H15V45.5a2.5,2.5,0,0,0,5,0V29h2V45.5a2.5,2.5,0,0,0,5,0V17H37Z"/>
        </g>
        <polygon class="cls-2" points="13 7 6.5 0 0 7 13 7"/>
        <polygon class="cls-2" points="39 8 39 21 46 14.5 39 8"/>
      </g>
    </g>
  </g>
</svg>
