<svg xmlns="http://www.w3.org/2000/svg" viewBox="0 0 38 48">
  <defs>
    <style>
      .cls-1 {
        fill: #4e4d4d;
      }

      .cls-2 {
        fill: #00b0d3;
      }
    </style>
  </defs>
  <title>hoja</title>
  <g id="Capa_2" data-name="Capa 2">
    <g id="Icon">
      <g>
        <g>
          <path class="cls-1" d="M23,4a4,4,0,0,0-8,0H11V8a1.9994,1.9994,0,0,0,2,2H25a1.9994,1.9994,0,0,0,2-2V4ZM19,6.25A2.25,2.25,0,1,1,21.25,4,2.25,2.25,0,0,1,19,6.25Z"/>
          <path class="cls-1" d="M36,4H29V8h5V34H24V44H4V8H9V4H2A1.9994,1.9994,0,0,0,0,6V46a1.9994,1.9994,0,0,0,2,2H36a1.9994,1.9994,0,0,0,2-2V6A1.9994,1.9994,0,0,0,36,4ZM26,43.5V36h7.5Z"/>
        </g>
        <polygon class="cls-2" points="11.961 21.639 8.639 24.961 16 32.323 30.361 17.961 27.039 14.639 16 25.677 11.961 21.639"/>
      </g>
    </g>
  </g>
</svg>
