<svg xmlns="http://www.w3.org/2000/svg" viewBox="0 0 38 48">
  <defs>
    <style>
      .cls-1 {
        fill: #4e4d4d;
      }

      .cls-2 {
        fill: #00b0d3;
      }
    </style>
  </defs>
  <title>idea</title>
  <g id="Capa_2" data-name="Capa 2">
    <g id="Icon">
      <g>
        <path class="cls-1" d="M34.834,34.084C33.89,33.2949,24.542,30,24.542,30L21,45.5v-8L19.5,35,21,33.5l-2-2-2,2L18.5,35,17,37.5v8L13.457,30S4.11,33.2949,3.166,34.084C1.8535,35.1763,0,43,0,48H38C38,43,36.1465,35.1763,34.834,34.084Z"/>
        <g>
          <path class="cls-2" d="M19,6a1,1,0,0,0,1-1V1a1,1,0,0,0-2,0V5A1,1,0,0,0,19,6Z"/>
          <path class="cls-2" d="M29,16a1,1,0,0,0,1,1h4a1,1,0,0,0,0-2H30A1,1,0,0,0,29,16Z"/>
          <path class="cls-2" d="M4,17H8a1,1,0,0,0,0-2H4a1,1,0,0,0,0,2Z"/>
          <path class="cls-2" d="M26.0713,23.0713a1,1,0,0,0,0,1.4141l2.8281,2.8281a1,1,0,1,0,1.4141-1.4141l-2.8281-2.8281A1,1,0,0,0,26.0713,23.0713Z"/>
          <path class="cls-2" d="M10.5146,8.9287a1,1,0,1,0,1.4141-1.4141L9.1006,4.6865A1,1,0,1,0,7.6865,6.1006Z"/>
          <path class="cls-2" d="M27.4854,8.9287l2.8281-2.8281a1,1,0,1,0-1.4141-1.4141L26.0713,7.5146a1,1,0,1,0,1.4141,1.4141Z"/>
          <path class="cls-2" d="M10.5146,23.0713,7.6865,25.8994a1,1,0,1,0,1.4141,1.4141l2.8281-2.8281a1,1,0,1,0-1.4141-1.4141Z"/>
          <path class="cls-2" d="M19,8a7.9544,7.9544,0,0,0-8,7.7617c0,2.6553,1.5352,4.1856,2.6309,5.8477a13.0894,13.0894,0,0,1,1.3759,2.0058c0,.34-.0048,2.3838-.0048,3.3848A.978.978,0,0,0,16,28h1a2,2,0,0,0,4,0h1a.9794.9794,0,0,0,1-1V23.6055c0-.5586.916-1.545,1.5635-2.4991C25.625,19.543,27,17.7725,27,15.7617A7.9538,7.9538,0,0,0,19,8Zm3.9092,11.9834A11.9968,11.9968,0,0,0,21.0938,23H16.877a16.0581,16.0581,0,0,0-1.5762-2.4912c-.9473-1.4385-2.5508-2.8-2.5508-4.7471A6.396,6.396,0,0,1,19,9.75a6.396,6.396,0,0,1,6.25,6.0117C25.25,17.1582,23.8086,18.6582,22.9092,19.9834Z"/>
        </g>
      </g>
    </g>
  </g>
</svg>
