<svg xmlns="http://www.w3.org/2000/svg" viewBox="0 0 48 48">
  <defs>
    <style>
      .cls-1 {
        fill: #4e4d4d;
      }

      .cls-2 {
        fill: #00b0d3;
      }
    </style>
  </defs>
  <title>llamar</title>
  <g id="Capa_2" data-name="Capa 2">
    <g id="Icon">
      <g>
        <g>
          <path class="cls-1" d="M14.4863,32.5391c.9942-.3428,2.1436-.7286,3.5137-1.1778V30.2822c-1.3418-.4306-2.5-.7822-2.5-.7822Z"/>
          <path class="cls-1" d="M30,31.3613c.3359.11.6406.211.9531.3145L32,30s-.8984.3652-2,.8252Z"/>
          <path class="cls-1" d="M12,30.77l-1,.9229.5381.9228L11,33.5381V33.77c.457-.1757,1.0811-.38,1.7314-.6142l-.27-.54L13,31.6924Z"/>
          <path class="cls-1" d="M8.6152,34.9141a6.1448,6.1448,0,0,1,1.4444-.7364L8.5,29.5A65.405,65.405,0,0,0,2,31.75C1.17,32.3867,0,37,0,40H6C6.626,37.9238,7.6816,35.6309,8.6152,34.9141Z"/>
          <path class="cls-1" d="M46,32.6152C45.5215,32.2461,40,30,40,30l2.5,4h-4l-.292.292a5.2592,5.2592,0,0,1,1.1807.624C40.32,35.6318,41.375,37.9248,42,40h6C48,37,46.83,33.252,46,32.6152Z"/>
          <path class="cls-1" d="M18.8857,26.75,20,30v2l4,2,4-2V30l1.1143-3.25a1.6826,1.6826,0,0,0,1.1357-.31A3.3635,3.3635,0,0,0,31,23.0088a.9517.9517,0,0,0-1-.5313V19.2236c0-2.0068-.48-3.3349-2.2227-3.3349C27.1875,14.6494,25.7412,14,24,14c-3.835,0-6,2.125-6,4.958v3.52a.9517.9517,0,0,0-1,.5313,3.3635,3.3635,0,0,0,.75,3.4316A1.6826,1.6826,0,0,0,18.8857,26.75Z"/>
          <path class="cls-1" d="M28.959,33.125,26,45.5v-5L24.5,38,26,36.5l-2-2-2,2L23.5,38,22,40.5v5L19.041,33.125S10.6777,35.8477,9.833,36.5C8.6582,37.4023,7,44,7,48H41c0-4-1.6582-10.5977-2.833-11.5C37.3223,35.8477,28.959,33.125,28.959,33.125Z"/>
          <path class="cls-1" d="M35.3457,33.1836c.4063.1465.78.2832,1.1064.4062L38.77,28.9229l2.73-1.3848c-1.1934-1.73-.8848-5.0762-.8848-5.0762C40.6152,19.6924,40.5,16,36,16c-2.27,0-3.4141.9443-4,2.23v2.9a3.1044,3.1044,0,0,1,.7559.92,5.3308,5.3308,0,0,1-1.1592,5.8681c-.043.0391-.0957.0674-.1416.1045l1.7754.8995Z"/>
          <path class="cls-1" d="M8.5,25.0156,9,27v1l3,2,3-2V27l.1885-.957a4.9065,4.9065,0,0,1,.0556-3.9922,3.12,3.12,0,0,1,.7559-.92V17.8545a1.589,1.589,0,0,0-1.3535-.73C14.2285,16.25,13.2285,16,12,16c-2.707,0-4,1.5156-4,3.5156V22s-.32-.0957-.5771.375a2.3509,2.3509,0,0,0,.4619,2.4229A.802.802,0,0,0,8.5,25.0156Z"/>
        </g>
        <path class="cls-2" d="M9.3633,14,16.916,9.7993c.4727-.4512-.9414-3.2983,0-4.1987A4.1143,4.1143,0,0,1,20.5,4h7a3.9594,3.9594,0,0,1,3.583,1.6006c.9473.9-.4707,3.7475,0,4.1987L38.6406,14s.4717-.4531,1.8877-1.8081c.9444-.9023.4727-5.8687-1.416-7.6753S32.5.002,24,0C15.5.002,10.7793,2.71,8.8887,4.5166,7,6.3232,6.5273,11.29,7.4746,12.1934,8.8887,13.5469,9.3633,14,9.3633,14Z"/>
      </g>
    </g>
  </g>
</svg>
