<svg xmlns="http://www.w3.org/2000/svg" viewBox="0 0 48 48">
  <defs>
    <style>
      .cls-1 {
        fill: #00b0d3;
      }

      .cls-2 {
        fill: #4e4d4d;
      }
    </style>
  </defs>
  <title>opciones</title>
  <g id="Capa_2" data-name="Capa 2">
    <g id="Icon">
      <g>
        <polygon class="cls-1" points="4 36 23 36 23 40 25 40 25 36 44 36 44 40 46 40 46 34 25 34 25 30 23 30 23 34 2 34 2 40 4 40 4 36"/>
        <g>
          <path class="cls-2" d="M19.7891,10.5,21,13.4165V15l3,2,3-2V13.4165L28.2109,10.5a1.2835,1.2835,0,0,0,.8887-.2554A2.6077,2.6077,0,0,0,29.6582,7.5c-.2988-.55-.6641-.5181-.6641-.5181S29,5.7969,29,4.3022C29,2.65,28.5215,1.5,27.0879,1.5A3.1808,3.1808,0,0,0,24,0c-3.1582,0-5,1.75-5,4.0835,0,1.4946.0059,2.8984.0059,2.8984s-.3653-.0317-.6641.5181A2.6077,2.6077,0,0,0,18.9,10.2446,1.2835,1.2835,0,0,0,19.7891,10.5Z"/>
          <path class="cls-2" d="M24,28c7,0,14-1.1665,14-1.75,0-1.75-1.3652-7.1323-2.334-7.875C34.9707,17.8389,28,16,28,16l-3,9.5v-5l-.5-1.25.5-.75-1-1-1,1,.5.75L23,20.5v5L20,16s-6.9707,1.8389-7.666,2.375C11.3652,19.1177,10,24.5,10,26.25,10,26.8335,17,28.0005,24,28Z"/>
          <circle class="cls-2" cx="45" cy="45" r="3"/>
          <circle class="cls-2" cx="24" cy="45" r="3"/>
          <circle class="cls-2" cx="3" cy="45" r="3"/>
        </g>
      </g>
    </g>
  </g>
</svg>
