<svg xmlns="http://www.w3.org/2000/svg" viewBox="0 0 36 47">
  <defs>
    <style>
      .cls-1 {
        fill: #4e4d4d;
      }
    </style>
  </defs>
  <title>puzzle</title>
  <g id="Capa_2" data-name="Capa 2">
    <g id="Icon">
      <path class="cls-1" d="M31,21.75a6.22,6.22,0,0,1,3.4473,1.0391,1.0015,1.0015,0,0,0,.5527.166,1.0011,1.0011,0,0,0,1-1V14a3.0033,3.0033,0,0,0-3-3H23.7393A1,1,0,0,1,22.92,9.4277a6,6,0,1,0-9.84,0A1,1,0,0,1,12.2607,11H3a3.0033,3.0033,0,0,0-3,3v7.9551a1.0007,1.0007,0,0,0,1.5527.834,6.25,6.25,0,1,1,0,10.4218A1.0015,1.0015,0,0,0,1,33.0449a1.0011,1.0011,0,0,0-1,1V44a3.0033,3.0033,0,0,0,3,3h8.9561a1,1,0,0,0,.833-1.5527,6.25,6.25,0,1,1,10.4218,0A1,1,0,0,0,24.0439,47H33a3.0033,3.0033,0,0,0,3-3V34.0449a1.0007,1.0007,0,0,0-1.5527-.834A6.2492,6.2492,0,1,1,31,21.75Z"/>
    </g>
  </g>
</svg>
