<svg xmlns="http://www.w3.org/2000/svg" viewBox="0 0 47.9844 48">
  <defs>
    <style>
      .cls-1 {
        fill: #00b0d3;
      }

      .cls-2 {
        fill: #4e4d4d;
      }
    </style>
  </defs>
  <title>quesito</title>
  <g id="Capa_2" data-name="Capa 2">
    <g id="Icon">
      <g>
        <g>
          <path class="cls-1" d="M41.377,37.72a21.9665,21.9665,0,0,0,5.9765-10.4209L39.1543,35.498Z"/>
          <path class="cls-1" d="M36.5029,32.8457,47.9844,21.3643A22.0264,22.0264,0,0,0,47.0518,15.6L33.1543,29.498Z"/>
          <path class="cls-1" d="M30.502,26.8457,45.5107,11.8369a22.0276,22.0276,0,0,0-2.6875-4.0088L27.1543,23.498Z"/>
          <path class="cls-1" d="M26,0V7.3477L32.3994.9482A22.0143,22.0143,0,0,0,26,0Z"/>
          <path class="cls-1" d="M36.1631,2.4893,26,12.6523v6.6954L40.1719,5.1768A21.9763,21.9763,0,0,0,36.1631,2.4893Z"/>
        </g>
        <g>
          <path class="cls-2" d="M0,24H22V2A21.9985,21.9985,0,0,0,0,24Z"/>
          <path class="cls-2" d="M22,48V26H0A21.9985,21.9985,0,0,0,22,48Z"/>
          <path class="cls-2" d="M24,48a21.9152,21.9152,0,0,0,15.3008-6.1992L24,26.5Z"/>
        </g>
      </g>
    </g>
  </g>
</svg>
