<svg xmlns="http://www.w3.org/2000/svg" viewBox="0 0 48 48">
  <defs>
    <style>
      .cls-1 {
        fill: #00b0d3;
      }

      .cls-2 {
        fill: #4e4d4d;
      }
    </style>
  </defs>
  <title>redes</title>
  <g id="Capa_2" data-name="Capa 2">
    <g id="Icon">
      <g>
        <g>
          <path class="cls-1" d="M20.6914,19.25,22,21.7559V23l2,1,2-1V21.7559L27.3086,19.25a1.0144,1.0144,0,0,0,.6992-.1992,2.0535,2.0535,0,0,0,.4375-2.1582c-.2344-.4307-.52-.4082-.52-.4082s.0019-.93.0019-2.1055c0-1.2969-.3769-2.2012-1.5019-2.2012A2.4993,2.4993,0,0,0,24,11c-2.4814,0-3.9277,1.375-3.9277,3.207,0,1.1758.0019,2.2774.0019,2.2774s-.2851-.0225-.52.4082a2.0535,2.0535,0,0,0,.4375,2.1582A1.0144,1.0144,0,0,0,20.6914,19.25Z"/>
          <path class="cls-1" d="M27.1426,23.5723,25,31.5v-4l-.5-1.25.5-.75-1-1-1,1,.5.75L23,27.5v4l-2.1426-7.9277a54.6773,54.6773,0,0,0-6.0254,1.8652C14.0723,26.0215,13,31,13,33H35c0-2-1.0723-6.9785-1.832-7.5625A54.6773,54.6773,0,0,0,27.1426,23.5723Z"/>
        </g>
        <path class="cls-2" d="M48,10V0H38l3.5879,3.5879L36.6572,8.5186a19.9866,19.9866,0,0,0-25.3144,0L6.4121,3.5879,10,0H0V10L3.5879,6.4116,8.52,11.3423a19.9849,19.9849,0,0,0,0,25.3154L3.5879,41.5884,0,38V48H10L6.4121,44.4121l4.9307-4.9307a19.9866,19.9866,0,0,0,25.3144,0l4.9307,4.9307L38,48H48V38l-3.5879,3.5879-4.9307-4.9307a19.9866,19.9866,0,0,0,0-25.3144l4.9307-4.9307ZM40.25,24A16.25,16.25,0,1,1,24,7.75,16.251,16.251,0,0,1,40.25,24Z"/>
      </g>
    </g>
  </g>
</svg>
