<svg xmlns="http://www.w3.org/2000/svg" viewBox="0 0 48 48">
  <defs>
    <style>
      .cls-1 {
        fill: #00b0d3;
      }

      .cls-2 {
        fill: #4e4d4d;
      }
    </style>
  </defs>
  <title>soporte</title>
  <g id="Capa_2" data-name="Capa 2">
    <g id="Icon">
      <g>
        <path class="cls-1" d="M19,11V8H15.8193a6.4505,6.4505,0,0,0-.7373-1.8188l2.0489-2.05L14.8691,1.8687l-2.0507,2.05A6.4384,6.4384,0,0,0,11,3.1807V0H8V3.1807a6.4384,6.4384,0,0,0-1.8184.7378l-2.0507-2.05L1.8691,4.1313l2.0489,2.05A6.4505,6.4505,0,0,0,3.1807,8H0v3H3.1807a6.4505,6.4505,0,0,0,.7373,1.8188l-2.0489,2.05,2.2618,2.2631,2.0507-2.05A6.4373,6.4373,0,0,0,8,15.8193V19h3V15.8193a6.4373,6.4373,0,0,0,1.8184-.7373l2.0507,2.05,2.2618-2.2631-2.0489-2.05A6.4505,6.4505,0,0,0,15.8193,11ZM9.5,12.25A2.75,2.75,0,1,1,12.25,9.5,2.7494,2.7494,0,0,1,9.5,12.25Z"/>
        <path class="cls-2" d="M48,33V27H44.6992a14.89,14.89,0,0,0-1.0547-3.2056L46.5273,21.7l-3.5263-4.854-2.8887,2.0986a14.9948,14.9948,0,0,0-2.7217-1.9873L38.4912,13.57,32.7861,12l-1.1,3.1006a14.1687,14.1687,0,0,0-3.375.0005L27.2119,12l-5.7051,1.57,1.1006,3.3877a14.9974,14.9974,0,0,0-2.7217,1.9878l-2.8886-2.0986L13.4717,21.7l2.8838,2.0947A14.8858,14.8858,0,0,0,15.3008,27H12v6h3.3008a14.8858,14.8858,0,0,0,1.0547,3.2051L13.4717,38.3l3.5273,4.854,2.8877-2.0986a15.0437,15.0437,0,0,0,2.7207,1.9868L21.5068,46.43,27.2139,48l1.1-3.1006a14.1869,14.1869,0,0,0,3.373,0L32.7861,48l5.7061-1.5708-1.1006-3.3867a15.0437,15.0437,0,0,0,2.7207-1.9868l2.8887,2.0986L46.5264,38.3l-2.8819-2.0937A14.8943,14.8943,0,0,0,44.6992,33ZM26.3633,23.82c.1914-.3515.4258-.334.4258-.334s-.003-.9-.003-1.8633C26.7861,20.125,27.97,19,30,19a2.0449,2.0449,0,0,1,1.9844.9629c.9219,0,1.23.74,1.23,1.8008,0,.9629-.003,1.7226-.003,1.7226s.2344-.0175.4258.334a1.6826,1.6826,0,0,1-.3574,1.7676.832.832,0,0,1-.5723.1621l-1.07,2.0508v1.0176L30,29.6367l-1.6367-.8183V27.8008L27.293,25.75a.832.832,0,0,1-.5723-.1621A1.6826,1.6826,0,0,1,26.3633,23.82ZM21,37c0-2,.877-5.709,1.5-6.1875a44.5954,44.5954,0,0,1,4.93-1.5254L29,35.3633V33.25l.5-1L29,31.5l1-1,1,1-.5.75.5,1v2.1133l1.57-6.0762a44.5954,44.5954,0,0,1,4.93,1.5254C38.123,31.291,39,35,39,37Z"/>
      </g>
    </g>
  </g>
</svg>
