<svg xmlns="http://www.w3.org/2000/svg" viewBox="0 0 48 48">
  <defs>
    <style>
      .cls-1 {
        fill: #00b0d3;
      }

      .cls-2 {
        fill: #4e4d4d;
      }
    </style>
  </defs>
  <title>tiempo</title>
  <g id="Capa_2" data-name="Capa 2">
    <g id="Icon">
      <g>
        <g>
          <path class="cls-1" d="M8,44h2V34H8.5A3.1424,3.1424,0,0,1,6,36v1H8Z"/>
          <path class="cls-1" d="M14,44h2c0-4.7969,4-8,4-8V34H12v1.75h6S14,39,14,44Z"/>
          <path class="cls-1" d="M24,26H22V25a1,1,0,0,0-2,0v1H6V25a1,1,0,0,0-2,0v1H2a1.9994,1.9994,0,0,0-2,2V46a1.9994,1.9994,0,0,0,2,2H24a1.9994,1.9994,0,0,0,2-2V28A1.9994,1.9994,0,0,0,24,26Zm-4,2h2v2H20ZM4,28H6v2H4ZM24,46H2V32H24Z"/>
        </g>
        <g>
          <polygon class="cls-2" points="26 6 26 21.121 33.485 28.606 35.606 26.485 29 19.879 29 6 26 6"/>
          <path class="cls-2" d="M28,0A20.0119,20.0119,0,0,0,8.4014,24h2.833A17.2421,17.2421,0,1,1,28,37.25V40A20,20,0,0,0,28,0Z"/>
        </g>
      </g>
    </g>
  </g>
</svg>
