<svg xmlns="http://www.w3.org/2000/svg" viewBox="0 0 48 31.0003">
  <defs>
    <style>
      .cls-1 {
        fill: #00b0d3;
      }

      .cls-2 {
        fill: #4e4d4d;
      }
    </style>
  </defs>
  <title>trato</title>
  <g id="Capa_2" data-name="Capa 2">
    <g id="Icon">
      <g>
        <g>
          <polygon class="cls-1" points="4.5 0 0 17 4.5 18 9 1 4.5 0"/>
          <polygon class="cls-1" points="43.5 0 39 1 43.5 18 48 17 43.5 0"/>
        </g>
        <path class="cls-2" d="M39.4961,19.2539,41,17.7773,37,2H11L7,17.7773l2.8545,1.9444C8.86,21.0088,8.7031,22.584,9.5586,23.44a2.4611,2.4611,0,0,0,2.7168.2852,2.4577,2.4577,0,0,0,.2832,2.7148c.8184.8194,2.293.708,3.5449-.1679a2.1673,2.1673,0,0,0,.4649,2.1582,2.233,2.233,0,0,0,2.4443.36,2.05,2.05,0,0,0,.5557,1.64,2.524,2.524,0,0,0,3.52-.3428,3.3149,3.3149,0,0,0,.3476-.41l.4434.4434a2.98,2.98,0,0,0,5.0039-1.3379,2.9723,2.9723,0,0,0,4-2,2.9723,2.9723,0,0,0,4-2,2.9993,2.9993,0,0,0,3.2383-4.9043Zm-.4356,3.8066a1.3332,1.3332,0,0,1-1.9648-.207l-4.2246-4.2246L31.8105,19.69l3.25,3.25a1.4992,1.4992,0,0,1,0,2.121,1.3332,1.3332,0,0,1-1.9648-.207l-4.2246-4.2246L27.8105,21.69l3.25,3.25a1.4992,1.4992,0,0,1,0,2.121,1.3233,1.3233,0,0,1-1.957-.1992l-4.2324-4.2324L23.8105,23.69l3.25,3.25a1.5,1.5,0,0,1-2.121,2.121l-.9512-.9511a2.0232,2.0232,0,0,0-.5567-1.541,2.0718,2.0718,0,0,0-1.77-.5411l-.73-.5214a1.9178,1.9178,0,0,0-.5-.9375,2.0387,2.0387,0,0,0-1.5937-.5567l-.8711-.6211a2.1358,2.1358,0,0,0-.5254-1.832,2.3945,2.3945,0,0,0-2.5449-.3594l-.1055-.0742a2.4,2.4,0,0,0-.35-2.5664,2.68,2.68,0,0,0-3.2617-.0107L8.9492,16.957,12.5234,4H18.5L15,13a2.1508,2.1508,0,0,0,2,2,3.75,3.75,0,0,0,3-1.5L23,9h4.75l11.31,11.75A1.7381,1.7381,0,0,1,39.0605,23.0605Z"/>
      </g>
    </g>
  </g>
</svg>
