<svg xmlns="http://www.w3.org/2000/svg" viewBox="0 0 48 48">
  <defs>
    <style>
      .cls-1 {
        fill: #4e4d4d;
      }

      .cls-2 {
        fill: #00b0d3;
      }
    </style>
  </defs>
  <title>valor</title>
  <g id="Capa_2" data-name="Capa 2">
    <g id="Icon">
      <g>
        <g>
          <path class="cls-1" d="M40,10c2.4,0,4-2.9438,4-5.4546A4.2988,4.2988,0,0,0,40,0a4.2988,4.2988,0,0,0-4,4.5454C36,7.0562,37.6,10,40,10Z"/>
          <path class="cls-1" d="M46,12.05V12H43.3682L41,18.5V14.25l-.5-1L41,12H39l.5,1.25-.5,1V18.5L36.6318,12H34v.05a2.5013,2.5013,0,0,0-2,2.45v13a2.4987,2.4987,0,0,0,3,2.4492V45.5a2.5,2.5,0,0,0,5,0,2.5,2.5,0,0,0,5,0V29.9492A2.4987,2.4987,0,0,0,48,27.5v-13A2.5013,2.5013,0,0,0,46,12.05Z"/>
        </g>
        <g>
          <polygon class="cls-2" points="0 35 4 35 4 48 11 48 11 35 15 35 7.5 27 0 35"/>
          <polygon class="cls-2" points="15 20 19 20 19 48 26 48 26 20 30 20 22.5 12 15 20"/>
        </g>
      </g>
    </g>
  </g>
</svg>
