<svg xmlns="http://www.w3.org/2000/svg" viewBox="0 0 277.939 214.8931">
  <defs>
    <style>
      .cls-1 {
        fill: #00456f;
      }

      .cls-2 {
        fill: #706f6f;
      }

      .cls-3 {
        fill: #34aed6;
      }

      .cls-4 {
        fill: #9d9d9c;
      }
    </style>
  </defs>
  <title>logo-navas-sanz</title>
  <g id="logotipo">
    <g>
      <path class="cls-1" d="M92.375,429.5664a34.5585,34.5585,0,0,0,.1929,3.9961,20.589,20.589,0,0,0,.6919,3.3184H88.127a20.7935,20.7935,0,0,0,.6757-3.2832,34.7723,34.7723,0,0,0,.1929-4.0225V415.3828q-.8532-1.1265-1.4644-1.8506a11.4745,11.4745,0,0,0-1.7539-1.8662h5.9864q1.0451,1.897,2.0034,3.3457.9565,1.4474,2.3413,3.2324l9.6064,12.4825V418.9678a34.2642,34.2642,0,0,0-.1928-3.9727,20.9443,20.9443,0,0,0-.6924-3.3291h5.1333a21.2135,21.2135,0,0,0-.6758,3.2988,34.512,34.512,0,0,0-.1929,4.0059V430.83a26.3983,26.3983,0,0,0,.2412,3.6054,8.494,8.494,0,0,0,.5953,2.4454h-5.1328a6.6846,6.6846,0,0,0-.9253-1.94,30.0247,30.0247,0,0,0-1.9873-2.8555l-9.51-12.4443Z" transform="translate(-75.7456 -255)"/>
      <path class="cls-1" d="M116.2227,429.5752l8.625-18.4092h.0122l8.625,18.4092q1.4963,3.1715,2.4458,4.7793a12.7287,12.7287,0,0,0,1.8667,2.5264H131.54a5.427,5.427,0,0,0-.185-2.3575,21.5758,21.5758,0,0,0-1.1826-3.4843l-.8238-1.9463h-9.3281l-.12.37a26.818,26.818,0,0,0-1.4805,4.3926,7.23,7.23,0,0,0-.29,3.0254h-6.3169a13.6858,13.6858,0,0,0,1.9956-2.6387Q114.7744,432.6338,116.2227,429.5752Zm5.1816-3.7012h6.5791l-3.2817-7.6113h-.0157Z" transform="translate(-75.7456 -255)"/>
      <path class="cls-1" d="M142.645,418.9707a29.2873,29.2873,0,0,0-1.81-3.99,23.4907,23.4907,0,0,0-2.31-3.3145h7.1553a6.1362,6.1362,0,0,0-.1529,2.55,13.9608,13.9608,0,0,0,.78,3.291l4.5186,12.9541h.0009l4.937-12.9541a13.7242,13.7242,0,0,0,.8609-3.2588,6.33,6.33,0,0,0-.04-2.582h6.4a12.687,12.687,0,0,0-1.5689,2.461q-.829,1.61-2.1645,4.8437l-7.1123,17.91h-3.0577Z" transform="translate(-75.7456 -255)"/>
      <path class="cls-1" d="M167.8765,429.5752l8.625-18.4092h.0122l8.625,18.4092q1.4963,3.1715,2.4458,4.7793a12.7287,12.7287,0,0,0,1.8667,2.5264h-6.2574a5.4254,5.4254,0,0,0-.185-2.3575,21.5758,21.5758,0,0,0-1.1826-3.4843l-.8238-1.9463h-9.3281l-.12.37a26.818,26.818,0,0,0-1.4805,4.3926,7.23,7.23,0,0,0-.29,3.0254h-6.3169a13.6858,13.6858,0,0,0,1.9956-2.6387Q166.4282,432.6338,167.8765,429.5752Zm5.1816-3.7012h6.5791l-3.2817-7.6113H176.34Z" transform="translate(-75.7456 -255)"/>
      <path class="cls-1" d="M204.3315,416.6377a7.8363,7.8363,0,0,0-2.2509-1.7539,5.593,5.593,0,0,0-2.4761-.5479,3.7071,3.7071,0,0,0-2.6128.958,3.1176,3.1176,0,0,0-1.0366,2.39,3.4494,3.4494,0,0,0,.8047,2.2207,11.9946,11.9946,0,0,0,2.8481,2.2852,16.4053,16.4053,0,0,1,4.3936,3.7324,6.6867,6.6867,0,0,1,1.2719,4.0556,6.8384,6.8384,0,0,1-2.2212,5.2139,7.86,7.86,0,0,1-5.5844,2.0762,14.6225,14.6225,0,0,1-2.8648-.2422,15.4811,15.4811,0,0,1-2.7846-.9V431.41a8.1641,8.1641,0,0,0,2.3989,2.123,5.5835,5.5835,0,0,0,2.7207.6758,4.5518,4.5518,0,0,0,3.0991-1.0694,3.4021,3.4021,0,0,0,1.2319-2.6787,3.9322,3.9322,0,0,0-.8364-2.4785,11.8278,11.8278,0,0,0-2.9424-2.414,16.1853,16.1853,0,0,1-4.2934-3.5879,6.149,6.149,0,0,1-1.2471-3.7979,6.2762,6.2762,0,0,1,2.2593-4.9326,8.3125,8.3125,0,0,1,5.668-1.9707,11.106,11.106,0,0,1,2.436.2412,7.8106,7.8106,0,0,1,2.0185.7568Z" transform="translate(-75.7456 -255)"/>
      <path class="cls-1" d="M220.207,420.918a4.7645,4.7645,0,0,1,1.5684-3.6446,5.5611,5.5611,0,0,1,3.9346-1.457,5.78,5.78,0,0,1,3.9257,1.3525,4.3033,4.3033,0,0,1,1.5616,3.3956,4.7484,4.7484,0,0,1-.9512,2.9785,6.3663,6.3663,0,0,1-1.2256,1.1582l1.0313.53a22.6484,22.6484,0,0,1,2.8193,1.6866l2.3359,1.7187a24.0691,24.0691,0,0,0,.98-4.375,38.27,38.27,0,0,0,.3526-5.2422,11.1909,11.1909,0,0,0-1.8184.1934,7.6617,7.6617,0,0,0-1.7373.45v-3.3467h11.1348v3.3467a8.3438,8.3438,0,0,0-1.7539-.459,12.25,12.25,0,0,0-2.0274-.1846h-.5947a29.0545,29.0545,0,0,1-2.1074,11.4883l1.9472,1.5449a20.3475,20.3475,0,0,0,2.8877,1.8828,12.6321,12.6321,0,0,0,2.711,1.1583l-3.3477,1.98a9.3221,9.3221,0,0,1-2.0674-.8047,11.4419,11.4419,0,0,1-2.0195-1.2871l-1.9473-1.5615a12.5208,12.5208,0,0,1-2.8164,2.1885,12.0385,12.0385,0,0,1-6.0342,1.6582,9.79,9.79,0,0,1-6.1543-1.8906,5.7646,5.7646,0,0,1-2.4541-4.74,5.83,5.83,0,0,1,1.5772-4.1025,8.6023,8.6023,0,0,1,2.3652-1.7383l-.5146-.4346A4.4435,4.4435,0,0,1,220.207,420.918Zm6.9991,13.2754a8.0566,8.0566,0,0,0,4.1357-1.2549,10.2511,10.2511,0,0,0,1.9473-1.48L230.584,429.43a15.3218,15.3218,0,0,0-2.335-1.3692q-1.7065-.8057-3.0107-1.498a8.1232,8.1232,0,0,0-1.8643,1.208,3.9416,3.9416,0,0,0-1.3974,3.0107,2.8718,2.8718,0,0,0,1.4961,2.4463A6.7057,6.7057,0,0,0,227.2061,434.1934Zm-3.7813-13.3555a2.1818,2.1818,0,0,0,.6582,1.6269,2.2748,2.2748,0,0,0,1.6553.6436,2.3242,2.3242,0,0,0,1.74-.5957,2.4938,2.4938,0,0,0,.5811-1.8037,1.8084,1.8084,0,0,0-.66-1.4238,2.4407,2.4407,0,0,0-1.6572-.5723,2.3453,2.3453,0,0,0-1.6572.6123A1.9476,1.9476,0,0,0,223.4248,420.8379Z" transform="translate(-75.7456 -255)"/>
      <path class="cls-1" d="M270.5645,416.6377a7.8349,7.8349,0,0,0-2.25-1.7539,5.5983,5.5983,0,0,0-2.4766-.5479,3.7042,3.7042,0,0,0-2.6123.958,3.1181,3.1181,0,0,0-1.0371,2.39,3.4472,3.4472,0,0,0,.8047,2.2207,11.9784,11.9784,0,0,0,2.8486,2.2852,16.4062,16.4062,0,0,1,4.3926,3.7324,6.6805,6.6805,0,0,1,1.2724,4.0556,6.8356,6.8356,0,0,1-2.2216,5.2139,7.8586,7.8586,0,0,1-5.584,2.0762,14.6279,14.6279,0,0,1-2.8653-.2422,15.5028,15.5028,0,0,1-2.7841-.9V431.41a8.1628,8.1628,0,0,0,2.3984,2.123,5.5871,5.5871,0,0,0,2.7217.6758,4.5513,4.5513,0,0,0,3.0986-1.0694,3.4017,3.4017,0,0,0,1.2315-2.6787,3.9318,3.9318,0,0,0-.836-2.4785,11.8183,11.8183,0,0,0-2.9424-2.414,16.189,16.189,0,0,1-4.2939-3.5879,6.1521,6.1521,0,0,1-1.2471-3.7979,6.2751,6.2751,0,0,1,2.26-4.9326,8.3125,8.3125,0,0,1,5.668-1.9707,11.1107,11.1107,0,0,1,2.4365.2412,7.799,7.799,0,0,1,2.0176.7568Z" transform="translate(-75.7456 -255)"/>
      <path class="cls-1" d="M277.251,429.5752l8.626-18.4092h.0117l8.625,18.4092q1.497,3.1715,2.4463,4.7793a12.7286,12.7286,0,0,0,1.8662,2.5264h-6.2569a5.4291,5.4291,0,0,0-.1855-2.3575,21.6247,21.6247,0,0,0-1.1826-3.4843l-.8233-1.9463H281.05l-.12.37a26.7707,26.7707,0,0,0-1.4805,4.3926,7.2239,7.2239,0,0,0-.29,3.0254h-6.3164a13.7053,13.7053,0,0,0,1.9951-2.6387Q275.8032,432.6338,277.251,429.5752Zm5.1816-3.7012h6.5791l-3.2812-7.6113h-.0157Z" transform="translate(-75.7456 -255)"/>
      <path class="cls-1" d="M306.28,429.5664a34.4353,34.4353,0,0,0,.1933,3.9961,20.5488,20.5488,0,0,0,.6924,3.3184h-5.1338a20.6154,20.6154,0,0,0,.6758-3.2832,34.6683,34.6683,0,0,0,.1934-4.0225V415.3828q-.8526-1.1265-1.4639-1.8506a11.5025,11.5025,0,0,0-1.7539-1.8662h5.9853q1.0459,1.897,2.004,3.3457.9564,1.4474,2.3408,3.2324l9.6064,12.4825V418.9678a34.1634,34.1634,0,0,0-.1924-3.9727,20.8883,20.8883,0,0,0-.6923-3.3291h5.1337a21.0515,21.0515,0,0,0-.6757,3.2988A34.498,34.498,0,0,0,323,418.9707V430.83a26.3983,26.3983,0,0,0,.2412,3.6054,8.4742,8.4742,0,0,0,.5957,2.4454h-5.1338a6.6481,6.6481,0,0,0-.9248-1.94,29.9332,29.9332,0,0,0-1.9873-2.8555L306.28,419.6416Z" transform="translate(-75.7456 -255)"/>
      <path class="cls-1" d="M326.8457,436.873q3.9916-7.1909,6.7285-12.4824,2.206-4.311,4.9424-9.99h-1.8389a24.3559,24.3559,0,0,0-5.48.5078,12.5412,12.5412,0,0,0-3.999,1.7295l.9336-2.4775.9336-2.4942h15.2227v.0078l-11.6026,22.4717h3.1065a24.3353,24.3353,0,0,0,5.3418-.499,15.8067,15.8067,0,0,0,4.3125-1.7217l-1.0137,2.4775-1.0293,2.4786H326.8457Z" transform="translate(-75.7456 -255)"/>
    </g>
    <g>
      <path class="cls-2" d="M79.2241,463.8242l6.8047-14.5234h.01l6.8047,14.5234q1.1806,2.5,1.93,3.77a10.0362,10.0362,0,0,0,1.4727,1.9932H91.3091a4.2829,4.2829,0,0,0-.146-1.8594,17.0722,17.0722,0,0,0-.9331-2.749l-.65-1.5361H82.2207l-.0947.292a21.1414,21.1414,0,0,0-1.168,3.4658,5.6986,5.6986,0,0,0-.2285,2.3867H75.7456a10.78,10.78,0,0,0,1.5742-2.082Q78.0815,466.2359,79.2241,463.8242Zm4.0879-2.92h5.19l-2.5888-6.0049h-.0122Z" transform="translate(-75.7456 -255)"/>
      <path class="cls-2" d="M103.1294,469.8926a5.2613,5.2613,0,0,1-4.0435-1.6,6.0949,6.0949,0,0,1-1.4917-4.3291,9.0111,9.0111,0,0,1,2.063-6.0616,6.5165,6.5165,0,0,1,5.1734-2.4189,5.16,5.16,0,0,1,1.5615.2285v-1.0791a16.2789,16.2789,0,0,0-.127-2.2344,9.06,9.06,0,0,0-.457-1.8027l1.93-.3936,1.9424-.4062a8.2369,8.2369,0,0,0-.419,1.9932q-.1141,1.1557-.1142,3.25v10.5117a17.76,17.76,0,0,0,.1333,2.4941,5.15,5.15,0,0,0,.4634,1.543h-3.3516V467.709l-1.6377,1.8535A4.6749,4.6749,0,0,1,103.1294,469.8926Zm.7617-12.4541a2.9258,2.9258,0,0,0-2.6533,1.251,7.7576,7.7576,0,0,0-.8125,4.081,5.8946,5.8946,0,0,0,.9839,3.5869,3.14,3.14,0,0,0,2.66,1.3262,3.736,3.736,0,0,0,1.5108-.3047l.8125-.4316v-8.709A3.79,3.79,0,0,0,103.8911,457.4385Z" transform="translate(-75.7456 -255)"/>
      <path class="cls-2" d="M112.4224,465.5508v-5.7256a14.3071,14.3071,0,0,0-.127-2.0059,15.1057,15.1057,0,0,0-.457-2.0312h3.3388v2.6533l1.7237-2.1328.6211-.3682a4.3634,4.3634,0,0,1,2.0278-.457,3.0751,3.0751,0,0,1,2.4971,1.0283,3.72,3.72,0,0,1,.7856,2.0567l2.0474-2.2852.56-.3174a3.92,3.92,0,0,1,1.8945-.4824,3.0027,3.0027,0,0,1,2.4414,1.0029,4.4666,4.4666,0,0,1,.8393,2.9326v6.1319a25.2089,25.2089,0,0,0,.1016,2.6406,4.0469,4.0469,0,0,0,.3682,1.3965h-3.8086a4.7345,4.7345,0,0,0,.457-1.5234,18.9666,18.9666,0,0,0,.127-2.5137v-5.2686a2.3275,2.3275,0,0,0-.522-1.6631,2.104,2.104,0,0,0-1.5908-.5459,4.539,4.539,0,0,0-2.189.6729l-.6621.4062v6.3985a17.76,17.76,0,0,0,.1333,2.4941,5.1554,5.1554,0,0,0,.4634,1.543h-3.9356a4.7344,4.7344,0,0,0,.4571-1.5234,18.9872,18.9872,0,0,0,.1269-2.5137v-5.2559a2.3573,2.3573,0,0,0-.5195-1.6758,2.1052,2.1052,0,0,0-1.5952-.5459,5.0607,5.0607,0,0,0-2.2412.6983l-.608.3174v6.4619a17.7752,17.7752,0,0,0,.1333,2.4941,5.1554,5.1554,0,0,0,.4634,1.543h-3.9355a4.7345,4.7345,0,0,0,.457-1.5234A18.9666,18.9666,0,0,0,112.4224,465.5508Z" transform="translate(-75.7456 -255)"/>
      <path class="cls-2" d="M134.1567,465.5508v-5.7256a14.3082,14.3082,0,0,0-.1269-2.0059,15.1057,15.1057,0,0,0-.457-2.0312h3.9355a5.1594,5.1594,0,0,0-.4634,1.5488,17.8167,17.8167,0,0,0-.1333,2.4883v5.7256a17.7752,17.7752,0,0,0,.1333,2.4941,5.1554,5.1554,0,0,0,.4634,1.543h-3.9355a4.7345,4.7345,0,0,0,.457-1.5234A18.97,18.97,0,0,0,134.1567,465.5508Zm1.314-15.5264a1.6834,1.6834,0,0,1,1.3184.6221,2.4055,2.4055,0,0,1,0,3.041,1.72,1.72,0,0,1-2.6368,0,2.4055,2.4055,0,0,1,0-3.041A1.6834,1.6834,0,0,1,135.4707,450.0244Z" transform="translate(-75.7456 -255)"/>
      <path class="cls-2" d="M140.4155,465.5508v-5.7256a14.434,14.434,0,0,0-.1269-2.0186,14.6608,14.6608,0,0,0-.4571-2.0185H143.17v2.3994l2.0947-2.4121a6.9968,6.9968,0,0,1,1.7774-.292,3.5042,3.5042,0,0,1,2.8564,1.1748,5.2227,5.2227,0,0,1,.9776,3.4209v5.4717a23.34,23.34,0,0,0,.1079,2.6094,4.3147,4.3147,0,0,0,.3872,1.4277h-3.834a4.732,4.732,0,0,0,.457-1.5234,18.9666,18.9666,0,0,0,.127-2.5137V460.46a2.5281,2.5281,0,0,0-.5586-1.7959,2.2532,2.2532,0,0,0-1.7139-.5909,5.2516,5.2516,0,0,0-2.0566.584l-.6221.2793v6.6143a17.76,17.76,0,0,0,.1333,2.4941,5.1554,5.1554,0,0,0,.4634,1.543h-3.9356a4.7319,4.7319,0,0,0,.4571-1.5234A18.9872,18.9872,0,0,0,140.4155,465.5508Z" transform="translate(-75.7456 -255)"/>
      <path class="cls-2" d="M154.2915,465.5508v-5.7256a14.3233,14.3233,0,0,0-.1269-2.0059,15.1074,15.1074,0,0,0-.4571-2.0312h3.9356a5.1594,5.1594,0,0,0-.4634,1.5488,17.8012,17.8012,0,0,0-.1333,2.4883v5.7256a17.76,17.76,0,0,0,.1333,2.4941,5.1554,5.1554,0,0,0,.4634,1.543h-3.9356a4.7344,4.7344,0,0,0,.4571-1.5234A18.9872,18.9872,0,0,0,154.2915,465.5508Zm1.314-15.5264a1.6832,1.6832,0,0,1,1.3183.6221,2.4055,2.4055,0,0,1,0,3.041,1.72,1.72,0,0,1-2.6367,0,2.4055,2.4055,0,0,1,0-3.041A1.6833,1.6833,0,0,1,155.6055,450.0244Z" transform="translate(-75.7456 -255)"/>
      <path class="cls-2" d="M166.8838,458.7334a4.0978,4.0978,0,0,0-1.1919-1.0029,2.8853,2.8853,0,0,0-1.3565-.3174,2.1362,2.1362,0,0,0-1.37.4316,1.3247,1.3247,0,0,0-.5449,1.0791,1.9,1.9,0,0,0,.3682,1.1426,6.777,6.777,0,0,0,1.3569,1.2822,11.4722,11.4722,0,0,1,2.3711,2.2979,3.6631,3.6631,0,0,1,.6728,2.12,3.8986,3.8986,0,0,1-1.2387,2.9522,4.3586,4.3586,0,0,1-3.12,1.1738,10.9156,10.9156,0,0,1-1.76-.1211,12.9848,12.9848,0,0,1-1.7984-.4629v-3.2881a6.2854,6.2854,0,0,0,1.6016,1.4346,3.1989,3.1989,0,0,0,1.64.47,1.9535,1.9535,0,0,0,1.3472-.4756,1.5407,1.5407,0,0,0,.5337-1.2,1.8035,1.8035,0,0,0-.4311-1.13,9.9005,9.9005,0,0,0-1.6236-1.46,9.5605,9.5605,0,0,1-2.1435-2.1328,3.7568,3.7568,0,0,1-.6119-2.0948,3.5207,3.5207,0,0,1,1.3516-2.8242,5.129,5.129,0,0,1,3.3955-1.124,5.7547,5.7547,0,0,1,1.2945.127,6.6709,6.6709,0,0,1,1.2568.457Z" transform="translate(-75.7456 -255)"/>
      <path class="cls-2" d="M173.0806,469.8926a2.7984,2.7984,0,0,1-2.3677-.9649,5.09,5.09,0,0,1-.7427-3.0849v-8.15h-1.9551v-.0069l4.691-4.9443h.019v3.0469h3.2119v1.9043h-3.2119v6.9951a3.7057,3.7057,0,0,0,.4761,2.0879,1.6173,1.6173,0,0,0,1.4282.6924,3.9054,3.9054,0,0,0,1.0727-.14,6.5311,6.5311,0,0,0,1.1744-.4951l-1.0918,2.6533a7.8565,7.8565,0,0,1-1.2632.3242A10.02,10.02,0,0,1,173.0806,469.8926Z" transform="translate(-75.7456 -255)"/>
      <path class="cls-2" d="M178.3618,465.5508v-5.7256a14.3233,14.3233,0,0,0-.1269-2.0059,15.1074,15.1074,0,0,0-.4571-2.0312h3.3389v2.45l2.1455-2.4121a5.391,5.391,0,0,1,1.8281-.3428,2.5184,2.5184,0,0,1,1.2315.2793l-.5586,2.9707-.127-.0889a3.0151,3.0151,0,0,0-1.8408-.5713,5.2516,5.2516,0,0,0-2.0566.584l-.6221.2793v6.6143a17.76,17.76,0,0,0,.1333,2.4941,5.1554,5.1554,0,0,0,.4634,1.543h-3.9356a4.7344,4.7344,0,0,0,.4571-1.5234A18.9872,18.9872,0,0,0,178.3618,465.5508Z" transform="translate(-75.7456 -255)"/>
      <path class="cls-2" d="M191.0571,469.8926a4.9143,4.9143,0,0,1-3.11-.8633,2.9557,2.9557,0,0,1-1.0918-2.4629,3.1147,3.1147,0,0,1,.768-2.0059,5.2186,5.2186,0,0,1,2.0757-1.4853l4.0625-1.6758v-1.2568a2.37,2.37,0,0,0-.6982-1.7969,2.6116,2.6116,0,0,0-1.8789-.666,4.28,4.28,0,0,0-1.4717.2588,6.98,6.98,0,0,0-1.561.8525l.76-2.6474a8.5,8.5,0,0,1,1.5742-.501,7.5252,7.5252,0,0,1,1.5489-.1592,4.4545,4.4545,0,0,1,3.3579,1.168,4.8558,4.8558,0,0,1,1.1235,3.4912v5.4082a23.34,23.34,0,0,0,.1079,2.6094,4.3171,4.3171,0,0,0,.3872,1.4277h-3.25v-1.32l-2.1455,1.6Zm2.7041-2.3994v-3.7959h-3.5547q-.1266,0-.3237.7675a5.3712,5.3712,0,0,0-.1968,1.2891,1.7365,1.7365,0,0,0,.6348,1.4668,3.1,3.1,0,0,0,1.9043.4883,5.27,5.27,0,0,0,1.5107-.2158Z" transform="translate(-75.7456 -255)"/>
      <path class="cls-2" d="M208.17,469.499a13.447,13.447,0,0,1-1.5171.3174,10.5947,10.5947,0,0,1-1.3647.0762,6.0157,6.0157,0,0,1-4.564-1.93,6.7871,6.7871,0,0,1-1.8218-4.85,7.7133,7.7133,0,0,1,2.0186-5.4531,6.6029,6.6029,0,0,1,5.0527-2.1768q.8123,0,1.4155.0576.6029.0557,1.6695.2471l-.14,3.1836a5.2641,5.2641,0,0,0-1.5156-1.1914,3.7409,3.7409,0,0,0-1.6553-.3672,3.4777,3.4777,0,0,0-2.8984,1.3779,6.9817,6.9817,0,0,0,.064,7.5342,3.7317,3.7317,0,0,0,3.0654,1.4092,5.2538,5.2538,0,0,0,1.3706-.1924,16.9249,16.9249,0,0,0,1.9165-.6943Z" transform="translate(-75.7456 -255)"/>
      <path class="cls-2" d="M211.8267,465.5508v-5.7256a14.3071,14.3071,0,0,0-.127-2.0059,15.1057,15.1057,0,0,0-.457-2.0312h3.9355a5.1594,5.1594,0,0,0-.4634,1.5488,17.8167,17.8167,0,0,0-.1333,2.4883v5.7256a17.7752,17.7752,0,0,0,.1333,2.4941,5.1554,5.1554,0,0,0,.4634,1.543h-3.9355a4.7345,4.7345,0,0,0,.457-1.5234A18.9666,18.9666,0,0,0,211.8267,465.5508Zm1.3139-15.5264a1.6834,1.6834,0,0,1,1.3184.6221,2.4055,2.4055,0,0,1,0,3.041,1.72,1.72,0,0,1-2.6367,0,2.4055,2.4055,0,0,1,0-3.041A1.6832,1.6832,0,0,1,213.1406,450.0244Z" transform="translate(-75.7456 -255)"/>
      <path class="cls-2" d="M218.7578,467.957a7.0024,7.0024,0,0,1-1.7383-4.8564,7.8779,7.8779,0,0,1,1.9356-5.4463,6.2192,6.2192,0,0,1,4.8437-2.1709,5.5984,5.5984,0,0,1,4.3614,1.9424,7.0384,7.0384,0,0,1,1.7324,4.8623,7.88,7.88,0,0,1-1.93,5.44,6.2267,6.2267,0,0,1-4.85,2.1641A5.6128,5.6128,0,0,1,218.7578,467.957Zm7.6113-1.7148a6.23,6.23,0,0,0,.6543-2.9258,6.6035,6.6035,0,0,0-1.27-4.2344,4.3821,4.3821,0,0,0-3.4414-1.6689,3.4868,3.4868,0,0,0-1.7695,1.72,6.2916,6.2916,0,0,0-.6543,2.94,6.5622,6.5622,0,0,0,1.2695,4.2275,4.382,4.382,0,0,0,3.44,1.6631A3.5517,3.5517,0,0,0,226.3691,466.2422Zm-3.625-11.8887a18.3871,18.3871,0,0,0,1.0411-2.6533,6.6651,6.6651,0,0,0,.3046-1.6377h3.377a15.1668,15.1668,0,0,0-1.2305,1.625q-.8525,1.2949-1.5742,2.666Z" transform="translate(-75.7456 -255)"/>
      <path class="cls-2" d="M232.4688,465.5508v-5.7256a14.3421,14.3421,0,0,0-.127-2.0186,14.8228,14.8228,0,0,0-.457-2.0185h3.3388v2.3994l2.0948-2.4121a6.9989,6.9989,0,0,1,1.7773-.292,3.5029,3.5029,0,0,1,2.8564,1.1748,5.2255,5.2255,0,0,1,.9776,3.4209v5.4717a23.49,23.49,0,0,0,.1074,2.6094,4.3163,4.3163,0,0,0,.3877,1.4277h-3.834a4.76,4.76,0,0,0,.4571-1.5234,18.9008,18.9008,0,0,0,.1269-2.5137V460.46a2.53,2.53,0,0,0-.5586-1.7959,2.2515,2.2515,0,0,0-1.7139-.5909,5.256,5.256,0,0,0-2.0566.584l-.6221.2793v6.6143a17.608,17.608,0,0,0,.1338,2.4941,5.141,5.141,0,0,0,.4629,1.543h-3.9355a4.76,4.76,0,0,0,.457-1.5234A18.88,18.88,0,0,0,232.4688,465.5508Z" transform="translate(-75.7456 -255)"/>
      <path class="cls-2" d="M259.4219,469.8926a5.2593,5.2593,0,0,1-4.043-1.6,6.0929,6.0929,0,0,1-1.4922-4.3291,9.0133,9.0133,0,0,1,2.0625-6.0616,6.5188,6.5188,0,0,1,5.1738-2.4189,5.1613,5.1613,0,0,1,1.5616.2285v-1.0791a16.2,16.2,0,0,0-.127-2.2344,9.1291,9.1291,0,0,0-.457-1.8027l1.93-.3936,1.9424-.4062a8.2321,8.2321,0,0,0-.419,1.9932q-.1143,1.1557-.1142,3.25v10.5117a17.93,17.93,0,0,0,.1328,2.4941,5.1961,5.1961,0,0,0,.4638,1.543h-3.3515V467.709l-1.6377,1.8535A4.6771,4.6771,0,0,1,259.4219,469.8926Zm.7617-12.4541a2.9258,2.9258,0,0,0-2.6533,1.251,7.7527,7.7527,0,0,0-.8125,4.081,5.8979,5.8979,0,0,0,.9834,3.5869,3.1417,3.1417,0,0,0,2.66,1.3262,3.7367,3.7367,0,0,0,1.5108-.3047l.8125-.4316v-8.709A3.79,3.79,0,0,0,260.1836,457.4385Z" transform="translate(-75.7456 -255)"/>
      <path class="cls-2" d="M274.541,469.8926a6.1994,6.1994,0,0,1-4.6846-1.91,6.8093,6.8093,0,0,1-1.8281-4.9072,8.8532,8.8532,0,0,1,1.6065-5.4268,4.8313,4.8313,0,0,1,4.0175-2.165h.0254a4.3377,4.3377,0,0,1,3.6368,1.6377,7.4544,7.4544,0,0,1,1.2763,4.6719v1.2441h-7.64a6.4837,6.4837,0,0,0,1.0918,3.1231,3.5866,3.5866,0,0,0,3.0732,1.5742,6.5441,6.5441,0,0,0,1.7266-.2315,5.8236,5.8236,0,0,0,1.5371-.6552l-1.0967,2.6513a12.51,12.51,0,0,1-1.4531.3174A9.5639,9.5639,0,0,1,274.541,469.8926Zm1.7949-8.7725a4.9122,4.9122,0,0,0-.667-2.7549,2.1717,2.1717,0,0,0-1.9111-.9521h.0127a2.3822,2.3822,0,0,0-2.1211,1.168,5.5448,5.5448,0,0,0-.7236,2.539Z" transform="translate(-75.7456 -255)"/>
      <path class="cls-2" d="M290.1689,463.8242V455.458a26.9884,26.9884,0,0,0-.1523-3.1357,16.4862,16.4862,0,0,0-.5459-2.628h10.88l-.7617,1.625-.7744,1.6377a9.1953,9.1953,0,0,0-2.26-.8574,12.3633,12.3633,0,0,0-2.6533-.2471h-.711v6.5127h6.4366l-.9141,1.6123-.9141,1.6123a6.8433,6.8433,0,0,0-2.0058-.8252,11.7665,11.7665,0,0,0-2.6026-.2412v3.3008a27.12,27.12,0,0,0,.1524,3.1485,16.16,16.16,0,0,0,.5459,2.6152h-4.4053a16.3794,16.3794,0,0,0,.5332-2.59A27.3947,27.3947,0,0,0,290.1689,463.8242Z" transform="translate(-75.7456 -255)"/>
      <path class="cls-2" d="M302.916,465.5508v-5.7256a14.2478,14.2478,0,0,0-.1269-2.0059,15.2478,15.2478,0,0,0-.4571-2.0312h3.9356a5.1451,5.1451,0,0,0-.4629,1.5488,17.6333,17.6333,0,0,0-.1338,2.4883v5.7256a17.5929,17.5929,0,0,0,.1338,2.4941,5.141,5.141,0,0,0,.4629,1.543H302.332a4.757,4.757,0,0,0,.4571-1.5234A18.9008,18.9008,0,0,0,302.916,465.5508Zm1.3145-15.5264a1.6816,1.6816,0,0,1,1.3174.6221,2.4041,2.4041,0,0,1,0,3.041,1.72,1.72,0,0,1-2.6368,0,2.4072,2.4072,0,0,1,0-3.041A1.6854,1.6854,0,0,1,304.2305,450.0244Z" transform="translate(-75.7456 -255)"/>
      <path class="cls-2" d="M309.1738,465.5508v-5.7256a14.3582,14.3582,0,0,0-.1269-2.0186,14.8094,14.8094,0,0,0-.4571-2.0185h3.3389v2.3994l2.0947-2.4121a7,7,0,0,1,1.7774-.292,3.5029,3.5029,0,0,1,2.8564,1.1748,5.2255,5.2255,0,0,1,.9776,3.4209v5.4717a23.49,23.49,0,0,0,.1074,2.6094,4.3163,4.3163,0,0,0,.3877,1.4277h-3.834a4.757,4.757,0,0,0,.457-1.5234,18.88,18.88,0,0,0,.127-2.5137V460.46a2.53,2.53,0,0,0-.5586-1.7959,2.2517,2.2517,0,0,0-1.7139-.5909,5.256,5.256,0,0,0-2.0566.584l-.6221.2793v6.6143a17.608,17.608,0,0,0,.1338,2.4941,5.141,5.141,0,0,0,.4629,1.543H308.59a4.757,4.757,0,0,0,.4571-1.5234A18.9008,18.9008,0,0,0,309.1738,465.5508Z" transform="translate(-75.7456 -255)"/>
      <path class="cls-2" d="M331.3789,469.499a13.4066,13.4066,0,0,1-1.5176.3174,10.5864,10.5864,0,0,1-1.3642.0762,6.0138,6.0138,0,0,1-4.5635-1.93,6.7853,6.7853,0,0,1-1.8223-4.85A7.7133,7.7133,0,0,1,324.13,457.66a6.6037,6.6037,0,0,1,5.0527-2.1768q.813,0,1.4151.0576.6035.0557,1.67.2471l-.14,3.1836a5.2574,5.2574,0,0,0-1.5156-1.1914,3.7393,3.7393,0,0,0-1.6553-.3672,3.4782,3.4782,0,0,0-2.8984,1.3779,6.978,6.978,0,0,0,.0644,7.5342,3.7294,3.7294,0,0,0,3.0645,1.4092,5.2545,5.2545,0,0,0,1.3711-.1924,16.9964,16.9964,0,0,0,1.917-.6943Z" transform="translate(-75.7456 -255)"/>
      <path class="cls-2" d="M338.2344,469.8926a4.9139,4.9139,0,0,1-3.11-.8633,2.9571,2.9571,0,0,1-1.0918-2.4629,3.1128,3.1128,0,0,1,.7686-2.0059,5.209,5.209,0,0,1,2.0752-1.4853l4.0625-1.6758v-1.2568a2.368,2.368,0,0,0-.6983-1.7969,2.6124,2.6124,0,0,0-1.8789-.666,4.2809,4.2809,0,0,0-1.4717.2588,6.967,6.967,0,0,0-1.56.8525l.76-2.6474a8.5113,8.5113,0,0,1,1.5742-.501,7.5271,7.5271,0,0,1,1.5488-.1592,4.4578,4.4578,0,0,1,3.3584,1.168,4.86,4.86,0,0,1,1.1231,3.4912v5.4082a23.49,23.49,0,0,0,.1074,2.6094,4.3139,4.3139,0,0,0,.3877,1.4277h-3.25v-1.32l-2.1455,1.6Zm2.7041-2.3994v-3.7959h-3.5547q-.1275,0-.3233.7675a5.3494,5.3494,0,0,0-.1972,1.2891,1.7378,1.7378,0,0,0,.6347,1.4668,3.0983,3.0983,0,0,0,1.9043.4883,5.2725,5.2725,0,0,0,1.5108-.2158Z" transform="translate(-75.7456 -255)"/>
      <path class="cls-2" d="M353.3779,458.7334a4.0951,4.0951,0,0,0-1.1914-1.0029,2.8878,2.8878,0,0,0-1.3564-.3174,2.1341,2.1341,0,0,0-1.3692.4316,1.326,1.326,0,0,0-.5459,1.0791,1.9029,1.9029,0,0,0,.3682,1.1426,6.8,6.8,0,0,0,1.3574,1.2822,11.4722,11.4722,0,0,1,2.3711,2.2979,3.6661,3.6661,0,0,1,.6729,2.12,3.8974,3.8974,0,0,1-1.2393,2.9522,4.3565,4.3565,0,0,1-3.1191,1.1738,10.9117,10.9117,0,0,1-1.76-.1211,12.94,12.94,0,0,1-1.7978-.4629v-3.2881a6.26,6.26,0,0,0,1.6015,1.4346,3.1968,3.1968,0,0,0,1.6387.47,1.9519,1.9519,0,0,0,1.3476-.4756,1.5428,1.5428,0,0,0,.5342-1.2,1.807,1.807,0,0,0-.4316-1.13,9.886,9.886,0,0,0-1.624-1.46,9.54,9.54,0,0,1-2.1426-2.1328,3.7531,3.7531,0,0,1-.6123-2.0948,3.52,3.52,0,0,1,1.3515-2.8242,5.129,5.129,0,0,1,3.3955-1.124,5.7618,5.7618,0,0,1,1.295.127,6.6618,6.6618,0,0,1,1.2558.457Z" transform="translate(-75.7456 -255)"/>
    </g>
  </g>
  <g id="isotipo">
    <g>
      <path class="cls-1" d="M278.5109,330.9068c5.5326,11.7108,6.4213,23.495,1.4248,33.2906-11.5547,22.6483-50.1806,26.08-86.2769,7.6665-36.094-18.4143-55.9878-51.7022-44.4331-74.3509,4.9911-9.7823,15.0354-15.9768,27.7423-18.3772-19.1293.6318-34.5188,7.6874-41.224,20.83-12.71,24.9132,10.5942,62.2554,52.0518,83.4061s85.37,18.0993,98.08-6.8136C292.588,363.402,289.2541,346.78,278.5109,330.9068Z" transform="translate(-75.7456 -255)"/>
      <g>
        <path class="cls-3" d="M234.3286,255h-38.98a.3974.3974,0,0,0-.3977.3977l9.2171,116.1052a108.0971,108.0971,0,0,0,23.2211,6.8091l7.3375-122.9143A.3976.3976,0,0,0,234.3286,255Z" transform="translate(-75.7456 -255)"/>
        <path class="cls-4" d="M187.7909,292.5223h-27.048a.3975.3975,0,0,0-.3976.3976l10.9861,58.0525a111.5171,111.5171,0,0,0,24.14,16.516q.6717.3431,1.35.6776L188.1885,292.92A.3973.3973,0,0,0,187.7909,292.5223Z" transform="translate(-75.7456 -255)"/>
        <path class="cls-4" d="M271.4525,301.2728H242.2834a.3979.3979,0,0,0-.3977.3977l-5.9525,77.6434a57.4671,57.4671,0,0,0,20.6039-2.1147L271.85,301.6705A.3974.3974,0,0,0,271.4525,301.2728Z" transform="translate(-75.7456 -255)"/>
      </g>
    </g>
  </g>
</svg>
